Coordinates
version=1
nRows=12
nColumns=24
inDegrees=yes

Units are S.I. units (second, meters, Newtons, ...)
Angles are in degrees.

endheader
time	pelvis_tilt	pelvis_list	pelvis_rotation	pelvis_tx	pelvis_ty	pelvis_tz	hip_flexion_r	hip_adduction_r	hip_rotation_r	knee_angle_r	ankle_angle_r	subtalar_angle_r	mtp_angle_r	hip_flexion_l	hip_adduction_l	hip_rotation_l	knee_angle_l	ankle_angle_l	subtalar_angle_l	mtp_angle_l	lumbar_extension	lumbar_bending	lumbar_rotation
      0.45900000	      0.63760549	      5.59062247	     -4.29601678	     -0.84784901	      1.03594189	      0.31674648	     27.50491686	     -2.70129740	     -0.08335294	     -6.51400680	      8.56225586	      1.97284947	     12.25654380	    -16.91371912	      8.11704187	     -0.75673148	     -3.67183937	     19.08947255	      8.17116797	      2.91302510	    -15.50066479	     -4.35325127	     -2.96787814
      0.46316667	      0.70237156	      5.56459758	     -4.25118183	     -0.84163317	      1.03500163	      0.31693968	     27.50615678	     -2.64346518	      0.13950216	     -6.85989871	      8.47530044	      1.71162830	     12.25999568	    -17.11726243	      8.06965910	     -0.81998712	     -4.18865039	     19.36779768	      8.44496501	      2.95992201	    -15.53700803	     -4.22454222	     -2.93086363
      0.46733333	      0.72162080	      5.53909000	     -4.19792743	     -0.83536165	      1.03401997	      0.31713932	     27.55700970	     -2.58400414	      0.36353415	     -7.28460314	      8.36407717	      1.42024988	     12.27261141	    -17.24258683	      8.01349776	     -0.93282854	     -4.78292376	     19.65414884	      8.77491655	      3.03485431	    -15.50375160	     -4.07591377	     -2.96757778
      0.47150000	      0.75912829	      5.48981432	     -4.13924737	     -0.82903056	      1.03313264	      0.31732710	     27.57194906	     -2.50630524	      0.57611193	     -7.75530295	      8.20511577	      1.07809182	     12.29299286	    -17.38597012	      7.92970851	     -1.05405246	     -5.38208662	     19.91659341	      9.11900164	      3.13120396	    -15.49476579	     -3.90173296	     -2.97979358
      0.47566667	      0.80384591	      5.43524516	     -4.07356087	     -0.82268973	      1.03231236	      0.31751754	     27.57434211	     -2.42697491	      0.77747051	     -8.28014973	      8.01245232	      0.71121912	     12.32028143	    -17.52223932	      7.83582168	     -1.16998154	     -6.01813544	     20.15157689	      9.45954276	      3.25462009	    -15.49294620	     -3.71470629	     -3.00248000
      0.47983333	      0.83664314	      5.36925673	     -4.00505686	     -0.81627753	      1.03153047	      0.31771463	     27.57760762	     -2.33615430	      0.97211060	     -8.84429292	      7.76615398	      0.29632716	     12.35368739	    -17.62679607	      7.72492587	     -1.30731603	     -6.69767682	     20.36889581	      9.80848448	      3.39954776	    -15.46678131	     -3.51498577	     -3.01217433
      0.48400000	      0.86475540	      5.29379398	     -3.93222835	     -0.80983397	      1.03080025	      0.31791788	     27.57751531	     -2.23700706	      1.15415420	     -9.44493080	      7.47481780	     -0.13769982	     12.39203649	    -17.71266877	      7.59871717	     -1.45742379	     -7.41411711	     20.55922911	     10.17390301	      3.57251062	    -15.43503703	     -3.29974220	     -3.02917495
      0.48816667	      0.89923620	      5.20991477	     -3.85378437	     -0.80334908	      1.03014179	      0.31811737	     27.56073657	     -2.13385377	      1.31837098	    -10.07516727	      7.14309533	     -0.58541246	     12.43419227	    -17.78700761	      7.45812861	     -1.63201317	     -8.16218858	     20.71469352	     10.55418335	      3.77722100	    -15.40816011	     -3.07366052	     -3.04338487
      0.49233333	      0.91647983	      5.12296723	     -3.76802441	     -0.79683888	      1.02952347	      0.31832191	     27.55670491	     -2.02878374	      1.46218945	    -10.73357938	      6.76980490	     -1.04140513	     12.47606272	    -17.82251571	      7.30777176	     -1.80058206	     -8.95715684	     20.83443944	     10.92128682	      4.00716961	    -15.35731582	     -2.83820812	     -3.05865395
      0.49650000	      0.93335819	      5.02673133	     -3.67972190	     -0.79027785	      1.02896751	      0.31854410	     27.54091067	     -1.91587373	      1.59213510	    -11.40516109	      6.36086674	     -1.50909923	     12.51839929	    -17.83661038	      7.14045046	     -1.99566599	     -9.80625105	     20.92781719	     11.30770763	      4.27604629	    -15.30188923	     -2.59519365	     -3.06908394
      0.50066667	      0.98870737	      4.93574317	     -3.58424563	     -0.78376380	      1.02852983	      0.31877510	     27.48547117	     -1.81726143	      1.68885582	    -12.10023318	      5.94247503	     -1.92147945	     12.58459454	    -17.85081559	      6.96747041	     -2.24434846	    -10.72637581	     21.00698153	     11.78133179	      4.75283672	    -15.31739318	     -2.37534059	     -3.07120803
      0.50483333	      0.94906139	      4.83379987	     -3.48349992	     -0.77710313	      1.02803957	      0.31899098	     27.52126266	     -1.70237255	      1.76797469	    -12.81380719	      5.48019218	     -2.38983694	     12.60686892	    -17.78308487	      6.78682505	     -2.37246315	    -11.60922087	     20.96886370	     12.02336703	      5.04218249	    -15.16064718	     -2.10314200	     -3.09602682
